<svg xmlns="http://www.w3.org/2000/svg" xmlns:xlink="http://www.w3.org/1999/xlink" width="500" zoomAndPan="magnify" viewBox="0 0 375 374.999991" height="500" preserveAspectRatio="xMidYMid meet" version="1.0"><defs><g/><clipPath id="1cce92b024"><path d="M 130.949219 160 L 180.449219 160 L 180.449219 237.730469 L 130.949219 237.730469 Z M 130.949219 160 " clip-rule="nonzero"/></clipPath><clipPath id="a7651f6947"><path d="M 116 161 L 208 161 L 208 183 L 116 183 Z M 116 161 " clip-rule="nonzero"/></clipPath><clipPath id="045847c307"><path d="M 140.707031 204.742188 L 115.90625 161.902344 L 183.410156 122.820312 L 208.210938 165.660156 Z M 140.707031 204.742188 " clip-rule="nonzero"/></clipPath><clipPath id="33ad1daa14"><path d="M 140.707031 204.742188 L 115.90625 161.902344 L 183.410156 122.820312 L 208.210938 165.660156 Z M 140.707031 204.742188 " clip-rule="nonzero"/></clipPath><clipPath id="ad9af6fa46"><path d="M 140.707031 204.742188 L 115.90625 161.902344 L 183.410156 122.820312 L 208.210938 165.660156 Z M 140.707031 204.742188 " clip-rule="nonzero"/></clipPath><clipPath id="36af25bfaf"><path d="M 312.222656 155.515625 L 332.472656 155.515625 L 332.472656 175.765625 L 312.222656 175.765625 Z M 312.222656 155.515625 " clip-rule="nonzero"/></clipPath></defs><g clip-path="url(#1cce92b024)"><path fill="#000000" d="M 130.949219 237.160156 C 130.949219 237.117188 131.1875 235.960938 131.472656 234.589844 C 131.964844 232.234375 132.007812 232.082031 132.246094 231.882812 C 132.75 231.460938 132.804688 230.957031 132.394531 230.472656 L 132.183594 230.21875 L 132.835938 227.878906 C 133.195312 226.589844 134.011719 223.65625 134.65625 221.363281 C 135.300781 219.066406 135.949219 216.601562 136.097656 215.882812 C 136.613281 213.421875 137.847656 209.050781 138.921875 205.878906 C 143.402344 192.65625 149.605469 181.496094 157.507812 172.4375 C 158.125 171.730469 158.234375 171.578125 157.828125 172.003906 C 156.972656 172.890625 154.851562 175.425781 153.675781 176.960938 C 147.917969 184.5 143.167969 193.289062 139.433594 203.3125 C 138.058594 207.011719 136.398438 212.390625 135.789062 215.144531 C 135.578125 216.097656 135.527344 216.128906 135.371094 215.433594 C 134.78125 212.855469 134.632812 208.824219 135.007812 205.664062 C 135.710938 199.742188 137.71875 192.929688 140.335938 187.582031 C 140.792969 186.652344 141.183594 185.910156 141.207031 185.933594 C 141.226562 185.957031 141.203125 186.324219 141.148438 186.75 C 140.980469 188.09375 141.214844 191.726562 141.5 192.242188 C 141.53125 192.300781 141.5625 191.824219 141.574219 191.179688 C 141.644531 185.722656 144.050781 179.890625 148.554688 174.238281 C 149.824219 172.648438 151.042969 171.308594 152.648438 169.742188 C 154.074219 168.351562 156.136719 166.546875 156.214844 166.625 C 156.234375 166.644531 155.550781 167.648438 154.6875 168.855469 C 153.828125 170.058594 153.136719 171.046875 153.152344 171.046875 C 153.167969 171.046875 153.667969 170.566406 154.261719 169.980469 C 156.023438 168.238281 157.6875 166.917969 159.757812 165.609375 C 165.136719 162.203125 172.257812 160.179688 179.125 160.101562 C 180.285156 160.085938 180.5 160.171875 179.617188 160.300781 C 177.035156 160.671875 171.929688 163.339844 167.527344 166.613281 C 165.648438 168.011719 164.40625 169.421875 163.679688 170.984375 C 163.050781 172.332031 162.898438 173.308594 162.722656 177.179688 C 162.609375 179.617188 162.378906 180.808594 161.710938 182.359375 C 160.824219 184.421875 159.359375 186.257812 156.796875 188.515625 C 156 189.214844 154.816406 190.273438 154.167969 190.867188 C 152.769531 192.144531 148.777344 196.042969 148.917969 195.996094 C 149.007812 195.964844 149.535156 195.542969 152.589844 193.046875 C 153.386719 192.398438 154.089844 191.835938 154.15625 191.792969 C 154.3125 191.699219 154.320312 191.6875 153.332031 193.136719 C 151.601562 195.675781 150.347656 197.914062 148.230469 202.226562 C 145.265625 208.269531 143.785156 210.644531 141.527344 212.980469 C 140.519531 214.023438 139.308594 215.054688 138.28125 215.75 C 137.984375 215.953125 137.761719 216.132812 137.78125 216.152344 C 137.800781 216.171875 138 216.125 138.226562 216.046875 C 138.820312 215.84375 139.816406 215.167969 140.441406 214.539062 C 140.742188 214.242188 140.988281 214.019531 140.988281 214.050781 C 140.988281 214.269531 140.554688 214.855469 140.0625 215.304688 C 139.632812 215.695312 139.207031 215.96875 138.449219 216.339844 C 137.882812 216.613281 137.414062 216.867188 137.414062 216.902344 C 137.410156 216.941406 137.613281 216.96875 137.867188 216.96875 C 138.4375 216.96875 139.171875 216.636719 139.878906 216.066406 C 140.152344 215.84375 140.375 215.6875 140.375 215.714844 C 140.375 215.742188 140.25 215.941406 140.097656 216.152344 C 139.558594 216.902344 138.21875 217.550781 136.800781 217.75 C 136.441406 217.800781 136.121094 217.890625 136.085938 217.949219 C 135.992188 218.097656 135.351562 220.761719 135.042969 222.273438 C 134.699219 223.988281 134.667969 224.519531 134.78125 226.839844 C 134.832031 227.941406 134.902344 229.472656 134.933594 230.242188 L 134.988281 231.640625 L 133.832031 232.761719 C 132.691406 233.871094 131.808594 234.929688 131.464844 235.597656 C 131.332031 235.859375 131.304688 236.03125 131.347656 236.316406 C 131.386719 236.582031 131.363281 236.769531 131.261719 236.960938 C 131.128906 237.214844 130.949219 237.328125 130.949219 237.160156 Z M 131.507812 235.902344 C 131.753906 235.160156 133.621094 233.117188 135.042969 232.027344 L 135.339844 231.800781 L 135.285156 230.625 C 135.253906 229.980469 135.164062 228.347656 135.082031 226.996094 C 134.957031 224.917969 134.953125 224.425781 135.050781 223.785156 C 135.113281 223.34375 135.1875 223.082031 135.226562 223.152344 C 135.261719 223.21875 135.316406 223.765625 135.351562 224.363281 C 135.40625 225.4375 135.707031 230.210938 135.785156 231.335938 L 135.828125 231.917969 L 135.15625 232.414062 C 134.484375 232.914062 132.785156 234.554688 131.914062 235.539062 C 131.664062 235.824219 131.480469 235.988281 131.507812 235.902344 Z M 131.507812 235.902344 " fill-opacity="1" fill-rule="nonzero"/></g><g fill="#000000" fill-opacity="1"><g transform="translate(25.322039, 232.39979)"><g><path d="M 7.9375 0 L 7.9375 -54.464844 L 14.394531 -54.464844 L 44.503906 -11.828125 L 44.503906 -54.464844 L 51.195312 -54.464844 L 51.195312 0 L 44.816406 0 L 14.707031 -42.636719 L 14.707031 0 Z M 7.9375 0 "/></g></g></g><g fill="#000000" fill-opacity="1"><g transform="translate(77.603854, 232.39979)"><g><path d="M 25.441406 1.011719 C 21.242188 1.011719 17.53125 0.105469 14.316406 -1.710938 C 11.101562 -3.527344 8.585938 -6.042969 6.769531 -9.257812 C 4.953125 -12.476562 4.046875 -16.132812 4.046875 -20.230469 C 4.046875 -24.378906 4.953125 -28.035156 6.769531 -31.199219 C 8.585938 -34.363281 11.101562 -36.855469 14.316406 -38.667969 C 17.53125 -40.484375 21.242188 -41.390625 25.441406 -41.390625 C 29.644531 -41.390625 33.351562 -40.484375 36.566406 -38.667969 C 39.785156 -36.855469 42.300781 -34.363281 44.117188 -31.199219 C 45.929688 -28.035156 46.839844 -24.378906 46.839844 -20.230469 C 46.839844 -16.132812 45.929688 -12.476562 44.117188 -9.257812 C 42.300781 -6.042969 39.785156 -3.527344 36.566406 -1.710938 C 33.351562 0.105469 29.644531 1.011719 25.441406 1.011719 Z M 10.582031 -20.230469 C 10.582031 -17.273438 11.21875 -14.667969 12.488281 -12.410156 C 13.757812 -10.152344 15.507812 -8.402344 17.738281 -7.15625 C 19.96875 -5.914062 22.539062 -5.289062 25.441406 -5.289062 C 28.347656 -5.289062 30.914062 -5.914062 33.144531 -7.15625 C 35.375 -8.402344 37.125 -10.152344 38.398438 -12.410156 C 39.667969 -14.667969 40.304688 -17.273438 40.304688 -20.230469 C 40.304688 -23.1875 39.667969 -25.78125 38.398438 -28.011719 C 37.125 -30.238281 35.375 -31.992188 33.144531 -33.261719 C 30.914062 -34.53125 28.347656 -35.167969 25.441406 -35.167969 C 22.539062 -35.167969 19.96875 -34.53125 17.738281 -33.261719 C 15.507812 -31.992188 13.757812 -30.238281 12.488281 -28.011719 C 11.21875 -25.78125 10.582031 -23.1875 10.582031 -20.230469 Z M 10.582031 -20.230469 "/></g></g></g><g fill="#000000" fill-opacity="1"><g transform="translate(162.078128, 232.39979)"><g><path d="M 24.742188 1.011719 C 20.695312 1.011719 17.117188 0.117188 14.003906 -1.671875 C 10.894531 -3.460938 8.453125 -5.964844 6.691406 -9.179688 C 4.925781 -12.398438 4.046875 -16.078125 4.046875 -20.230469 C 4.046875 -24.378906 4.925781 -28.046875 6.691406 -31.238281 C 8.453125 -34.429688 10.90625 -36.917969 14.042969 -38.707031 C 17.183594 -40.496094 20.773438 -41.390625 24.820312 -41.390625 C 29.125 -41.390625 32.859375 -40.378906 36.023438 -38.359375 C 39.1875 -36.335938 41.613281 -33.546875 43.296875 -29.992188 C 44.984375 -26.441406 45.75 -22.304688 45.59375 -17.582031 L 10.660156 -17.582031 C 11.179688 -13.796875 12.707031 -10.777344 15.25 -8.519531 C 17.792969 -6.261719 20.980469 -5.136719 24.820312 -5.136719 C 27.464844 -5.136719 29.878906 -5.707031 32.054688 -6.847656 C 34.234375 -7.988281 35.945312 -9.621094 37.191406 -11.75 L 44.582031 -11.75 C 42.972656 -7.804688 40.40625 -4.695312 36.878906 -2.410156 C 33.351562 -0.128906 29.304688 1.011719 24.742188 1.011719 Z M 10.738281 -23.339844 L 39.058594 -23.339844 C 38.382812 -27.023438 36.761719 -29.929688 34.195312 -32.054688 C 31.628906 -34.183594 28.503906 -35.246094 24.820312 -35.246094 C 21.085938 -35.246094 17.945312 -34.15625 15.40625 -31.976562 C 12.863281 -29.800781 11.308594 -26.921875 10.738281 -23.339844 Z M 10.738281 -23.339844 "/></g></g></g><g fill="#000000" fill-opacity="1"><g transform="translate(204.712643, 232.39979)"><g><path d="M 3.734375 0 L 3.734375 -4.902344 L 28.011719 -34.390625 L 4.511719 -34.390625 L 4.511719 -40.378906 L 36.878906 -40.378906 L 36.878906 -35.480469 L 12.761719 -5.992188 L 37.347656 -5.992188 L 37.347656 0 Z M 3.734375 0 "/></g></g></g><g fill="#000000" fill-opacity="1"><g transform="translate(238.871092, 232.39979)"><g/></g></g><g fill="#000000" fill-opacity="1"><g transform="translate(251.318864, 232.39979)"><g/></g></g><g fill="#000000" fill-opacity="1"><g transform="translate(263.773434, 232.39979)"><g><path d="M 1.324219 0 L 23.730469 -54.464844 L 30.109375 -54.464844 L 52.519531 0 L 45.28125 0 L 40.148438 -12.371094 L 13.617188 -12.371094 L 8.636719 0 Z M 16.261719 -18.75 L 37.578125 -18.75 L 26.921875 -44.894531 Z M 16.261719 -18.75 "/></g></g></g><g fill="#000000" fill-opacity="1"><g transform="translate(310.764794, 232.39979)"><g><path d="M 7.9375 -54.464844 L 14.78125 -54.464844 L 14.78125 0 L 7.9375 0 Z M 7.9375 -54.464844 "/></g></g></g><g clip-path="url(#a7651f6947)"><g clip-path="url(#045847c307)"><g clip-path="url(#33ad1daa14)"><g clip-path="url(#ad9af6fa46)"><path fill="#000000" d="M 207.71875 165.945312 C 207.683594 165.964844 206.5625 166.34375 205.234375 166.78125 C 202.949219 167.535156 202.792969 167.574219 202.503906 167.46875 C 201.882812 167.242188 201.421875 167.449219 201.207031 168.046875 L 201.09375 168.359375 L 198.742188 168.964844 C 197.445312 169.300781 194.5 170.058594 192.1875 170.652344 C 189.878906 171.246094 187.421875 171.921875 186.726562 172.152344 C 184.339844 172.9375 179.9375 174.0625 176.652344 174.71875 C 162.964844 177.464844 150.199219 177.691406 138.402344 175.390625 C 137.476562 175.210938 137.292969 175.191406 137.863281 175.332031 C 139.058594 175.625 142.316406 176.191406 144.234375 176.4375 C 153.644531 177.644531 163.628906 177.355469 174.175781 175.5625 C 178.066406 174.902344 183.550781 173.640625 186.242188 172.789062 C 187.171875 172.496094 187.222656 172.519531 186.699219 173.007812 C 184.765625 174.808594 181.351562 176.957031 178.425781 178.214844 C 172.949219 180.574219 166.046875 182.25 160.109375 182.664062 C 159.078125 182.734375 158.238281 182.765625 158.246094 182.738281 C 158.257812 182.707031 158.585938 182.542969 158.984375 182.375 C 160.226562 181.847656 163.257812 179.828125 163.5625 179.320312 C 163.59375 179.265625 163.164062 179.476562 162.605469 179.789062 C 157.84375 182.460938 151.59375 183.300781 144.441406 182.234375 C 142.433594 181.933594 140.664062 181.550781 138.5 180.945312 C 136.585938 180.410156 133.988281 179.527344 134.015625 179.421875 C 134.023438 179.394531 135.238281 179.484375 136.710938 179.625 C 138.183594 179.765625 139.386719 179.867188 139.378906 179.855469 C 139.371094 179.84375 138.703125 179.652344 137.898438 179.429688 C 135.511719 178.777344 133.53125 178 131.363281 176.863281 C 125.722656 173.914062 120.402344 168.765625 116.894531 162.863281 C 116.300781 161.863281 116.265625 161.636719 116.816406 162.335938 C 118.433594 164.386719 123.300781 167.46875 128.339844 169.636719 C 130.488281 170.5625 132.332031 170.929688 134.050781 170.777344 C 135.53125 170.644531 136.453125 170.285156 139.890625 168.503906 C 142.058594 167.378906 143.203125 166.980469 144.878906 166.78125 C 147.109375 166.515625 149.433594 166.863281 152.667969 167.949219 C 153.675781 168.289062 155.183594 168.78125 156.023438 169.046875 C 157.828125 169.617188 163.203125 171.117188 163.09375 171.019531 C 163.019531 170.957031 162.390625 170.714844 158.699219 169.316406 C 157.742188 168.957031 156.902344 168.628906 156.832031 168.589844 C 156.671875 168.503906 156.65625 168.503906 158.40625 168.632812 C 161.472656 168.859375 164.035156 168.824219 168.828125 168.492188 C 175.542969 168.03125 178.339844 168.121094 181.496094 168.90625 C 182.902344 169.257812 184.402344 169.785156 185.519531 170.328125 C 185.839844 170.484375 186.109375 170.589844 186.113281 170.5625 C 186.121094 170.535156 185.980469 170.386719 185.800781 170.226562 C 185.328125 169.8125 184.242188 169.289062 183.386719 169.0625 C 182.976562 168.957031 182.664062 168.855469 182.691406 168.839844 C 182.878906 168.730469 183.605469 168.808594 184.238281 169.011719 C 184.792969 169.183594 185.242188 169.417969 185.941406 169.890625 C 186.464844 170.242188 186.917969 170.515625 186.949219 170.5 C 186.984375 170.484375 186.90625 170.292969 186.78125 170.078125 C 186.492188 169.582031 185.839844 169.109375 184.992188 168.789062 C 184.660156 168.664062 184.410156 168.546875 184.4375 168.535156 C 184.460938 168.519531 184.695312 168.527344 184.957031 168.554688 C 185.875 168.648438 187.109375 169.480469 187.992188 170.609375 C 188.214844 170.890625 188.453125 171.125 188.523438 171.128906 C 188.699219 171.132812 191.324219 170.351562 192.785156 169.859375 C 194.441406 169.300781 194.917969 169.0625 196.871094 167.800781 C 197.796875 167.203125 199.085938 166.378906 199.734375 165.964844 L 200.917969 165.21875 L 202.46875 165.65625 C 204.003906 166.085938 205.359375 166.320312 206.105469 166.28125 C 206.402344 166.265625 206.5625 166.207031 206.789062 166.027344 C 207 165.859375 207.171875 165.785156 207.390625 165.777344 C 207.675781 165.761719 207.867188 165.859375 207.71875 165.945312 Z M 206.351562 166.09375 C 205.585938 166.25 202.882812 165.660156 201.226562 164.976562 L 200.882812 164.832031 L 199.894531 165.46875 C 199.347656 165.820312 197.980469 166.714844 196.851562 167.460938 C 195.117188 168.609375 194.691406 168.863281 194.089844 169.097656 C 193.675781 169.261719 193.410156 169.332031 193.453125 169.261719 C 193.496094 169.199219 193.9375 168.878906 194.4375 168.550781 C 195.339844 167.960938 199.320312 165.3125 200.253906 164.679688 L 200.738281 164.351562 L 201.503906 164.683594 C 202.273438 165.015625 204.546875 165.664062 205.832031 165.921875 C 206.207031 166 206.441406 166.074219 206.351562 166.09375 Z M 206.351562 166.09375 " fill-opacity="1" fill-rule="nonzero"/></g></g></g></g><g clip-path="url(#36af25bfaf)"><path fill="#000000" d="M 322.40625 160.832031 C 322.464844 161.390625 322.617188 161.925781 322.859375 162.433594 C 323.105469 162.941406 323.425781 163.394531 323.824219 163.792969 C 324.222656 164.1875 324.675781 164.511719 325.179688 164.753906 C 325.6875 164.996094 326.222656 165.148438 326.78125 165.210938 C 328.125 165.355469 329.859375 165.453125 332.101562 165.453125 C 329.859375 165.453125 328.125 165.546875 326.78125 165.695312 C 326.222656 165.753906 325.6875 165.90625 325.179688 166.152344 C 324.675781 166.394531 324.222656 166.714844 323.824219 167.113281 C 323.425781 167.511719 323.105469 167.964844 322.859375 168.472656 C 322.617188 168.980469 322.464844 169.511719 322.40625 170.074219 C 322.257812 171.417969 322.160156 173.152344 322.160156 175.390625 C 322.160156 173.152344 322.066406 171.417969 321.917969 170.074219 C 321.859375 169.511719 321.707031 168.980469 321.464844 168.472656 C 321.21875 167.964844 320.898438 167.511719 320.5 167.113281 C 320.101562 166.714844 319.648438 166.394531 319.140625 166.152344 C 318.636719 165.90625 318.101562 165.753906 317.542969 165.695312 C 316.199219 165.546875 314.464844 165.453125 312.222656 165.453125 C 314.464844 165.453125 316.199219 165.355469 317.542969 165.210938 C 318.101562 165.148438 318.636719 164.996094 319.140625 164.753906 C 319.648438 164.511719 320.101562 164.1875 320.5 163.792969 C 320.898438 163.394531 321.21875 162.941406 321.464844 162.433594 C 321.707031 161.925781 321.859375 161.390625 321.917969 160.832031 C 322.066406 159.488281 322.160156 157.753906 322.160156 155.515625 C 322.160156 157.753906 322.257812 159.488281 322.40625 160.832031 Z M 322.40625 160.832031 " fill-opacity="1" fill-rule="nonzero"/></g></svg>