<svg xmlns="http://www.w3.org/2000/svg" xmlns:xlink="http://www.w3.org/1999/xlink" width="500" zoomAndPan="magnify" viewBox="0 0 375 374.999991" height="500" preserveAspectRatio="xMidYMid meet" version="1.0"><defs><g/><clipPath id="2bf004c231"><path d="M 130.949219 160 L 180 160 L 180 237.730469 L 130.949219 237.730469 Z M 130.949219 160 " clip-rule="nonzero"/></clipPath><clipPath id="0abe3c365e"><path d="M 116 162 L 208 162 L 208 183 L 116 183 Z M 116 162 " clip-rule="nonzero"/></clipPath><clipPath id="f2f1ee9da2"><path d="M 140.707031 204.742188 L 115.90625 161.902344 L 183.410156 122.820312 L 208.210938 165.660156 Z M 140.707031 204.742188 " clip-rule="nonzero"/></clipPath><clipPath id="2ec4426f44"><path d="M 140.707031 204.742188 L 115.90625 161.902344 L 183.410156 122.820312 L 208.210938 165.660156 Z M 140.707031 204.742188 " clip-rule="nonzero"/></clipPath><clipPath id="f909644809"><path d="M 312.222656 155.515625 L 332.472656 155.515625 L 332.472656 175.765625 L 312.222656 175.765625 Z M 312.222656 155.515625 " clip-rule="nonzero"/></clipPath></defs><g clip-path="url(#2bf004c231)"><path fill="#ffffff" d="M 130.949219 237.054688 C 130.949219 237.015625 131.183594 235.859375 131.46875 234.488281 C 131.960938 232.136719 132.003906 231.984375 132.242188 231.785156 C 132.742188 231.363281 132.796875 230.859375 132.386719 230.375 L 132.175781 230.125 L 132.824219 227.785156 C 133.183594 226.5 134 223.570312 134.640625 221.277344 C 135.277344 218.984375 135.925781 216.523438 136.074219 215.804688 C 136.585938 213.347656 137.816406 208.984375 138.882812 205.816406 C 143.34375 192.609375 149.515625 181.46875 157.378906 172.421875 C 157.996094 171.714844 158.105469 171.5625 157.699219 171.988281 C 156.851562 172.871094 154.738281 175.402344 153.570312 176.9375 C 147.835938 184.464844 143.109375 193.242188 139.394531 203.253906 C 138.023438 206.949219 136.375 212.316406 135.765625 215.066406 C 135.554688 216.019531 135.507812 216.050781 135.347656 215.355469 C 134.765625 212.78125 134.613281 208.757812 134.988281 205.601562 C 135.6875 199.6875 137.6875 192.882812 140.292969 187.542969 C 140.746094 186.617188 141.132812 185.875 141.15625 185.898438 C 141.179688 185.921875 141.15625 186.289062 141.101562 186.714844 C 140.933594 188.054688 141.164062 191.683594 141.449219 192.199219 C 141.480469 192.257812 141.515625 191.777344 141.523438 191.136719 C 141.59375 185.6875 143.988281 179.863281 148.472656 174.21875 C 149.734375 172.628906 150.945312 171.292969 152.546875 169.726562 C 153.964844 168.339844 156.019531 166.539062 156.09375 166.613281 C 156.117188 166.636719 155.433594 167.636719 154.578125 168.84375 C 153.71875 170.046875 153.03125 171.03125 153.046875 171.03125 C 153.0625 171.03125 153.558594 170.550781 154.152344 169.964844 C 155.90625 168.230469 157.5625 166.90625 159.621094 165.601562 C 164.976562 162.203125 172.0625 160.179688 178.894531 160.101562 C 180.054688 160.085938 180.265625 160.171875 179.386719 160.300781 C 176.816406 160.671875 171.734375 163.332031 167.355469 166.605469 C 165.484375 168 164.25 169.410156 163.523438 170.96875 C 162.898438 172.316406 162.75 173.292969 162.570312 177.15625 C 162.460938 179.589844 162.226562 180.78125 161.566406 182.328125 C 160.683594 184.386719 159.222656 186.222656 156.675781 188.476562 C 155.882812 189.175781 154.703125 190.234375 154.058594 190.828125 C 152.667969 192.101562 148.695312 195.996094 148.832031 195.949219 C 148.921875 195.917969 149.445312 195.496094 152.488281 193.003906 C 153.277344 192.355469 153.980469 191.792969 154.046875 191.75 C 154.203125 191.65625 154.210938 191.644531 153.226562 193.09375 C 151.503906 195.628906 150.253906 197.863281 148.148438 202.167969 C 145.199219 208.207031 143.726562 210.578125 141.476562 212.910156 C 140.472656 213.949219 139.269531 214.980469 138.246094 215.675781 C 137.953125 215.875 137.726562 216.054688 137.746094 216.074219 C 137.765625 216.09375 137.96875 216.046875 138.191406 215.96875 C 138.785156 215.769531 139.773438 215.09375 140.398438 214.464844 C 140.695312 214.167969 140.9375 213.945312 140.9375 213.976562 C 140.9375 214.195312 140.507812 214.78125 140.019531 215.230469 C 139.59375 215.621094 139.167969 215.894531 138.414062 216.261719 C 137.847656 216.535156 137.386719 216.789062 137.382812 216.828125 C 137.378906 216.863281 137.582031 216.890625 137.835938 216.890625 C 138.402344 216.890625 139.136719 216.5625 139.835938 215.992188 C 140.109375 215.769531 140.332031 215.609375 140.332031 215.640625 C 140.332031 215.667969 140.207031 215.863281 140.054688 216.078125 C 139.515625 216.824219 138.183594 217.472656 136.773438 217.671875 C 136.417969 217.722656 136.097656 217.8125 136.058594 217.871094 C 135.96875 218.019531 135.328125 220.679688 135.027344 222.191406 C 134.679688 223.898438 134.648438 224.433594 134.761719 226.75 C 134.816406 227.847656 134.882812 229.375 134.914062 230.144531 L 134.96875 231.542969 L 133.820312 232.664062 C 132.683594 233.773438 131.804688 234.828125 131.464844 235.492188 C 131.332031 235.757812 131.300781 235.925781 131.34375 236.210938 C 131.386719 236.476562 131.359375 236.664062 131.261719 236.859375 C 131.128906 237.109375 130.949219 237.226562 130.949219 237.054688 Z M 131.503906 235.796875 C 131.75 235.058594 133.609375 233.019531 135.023438 231.929688 L 135.320312 231.703125 L 135.265625 230.53125 C 135.234375 229.882812 135.144531 228.253906 135.0625 226.90625 C 134.941406 224.832031 134.933594 224.339844 135.03125 223.699219 C 135.09375 223.257812 135.167969 222.996094 135.207031 223.066406 C 135.242188 223.132812 135.296875 223.675781 135.328125 224.273438 C 135.386719 225.347656 135.683594 230.113281 135.761719 231.238281 L 135.804688 231.820312 L 135.136719 232.316406 C 134.46875 232.816406 132.773438 234.453125 131.910156 235.4375 C 131.660156 235.722656 131.476562 235.886719 131.503906 235.796875 Z M 131.503906 235.796875 " fill-opacity="1" fill-rule="nonzero"/></g><g fill="#ffffff" fill-opacity="1"><g transform="translate(25.322039, 232.399847)"><g><path d="M 7.9375 0 L 7.9375 -54.464844 L 14.394531 -54.464844 L 44.503906 -11.828125 L 44.503906 -54.464844 L 51.195312 -54.464844 L 51.195312 0 L 44.816406 0 L 14.707031 -42.636719 L 14.707031 0 Z M 7.9375 0 "/></g></g></g><g fill="#ffffff" fill-opacity="1"><g transform="translate(77.603854, 232.399847)"><g><path d="M 25.441406 1.011719 C 21.242188 1.011719 17.53125 0.105469 14.316406 -1.710938 C 11.101562 -3.527344 8.585938 -6.042969 6.769531 -9.257812 C 4.953125 -12.476562 4.046875 -16.132812 4.046875 -20.230469 C 4.046875 -24.378906 4.953125 -28.035156 6.769531 -31.199219 C 8.585938 -34.363281 11.101562 -36.855469 14.316406 -38.667969 C 17.53125 -40.484375 21.242188 -41.390625 25.441406 -41.390625 C 29.644531 -41.390625 33.351562 -40.484375 36.566406 -38.667969 C 39.785156 -36.855469 42.300781 -34.363281 44.117188 -31.199219 C 45.929688 -28.035156 46.839844 -24.378906 46.839844 -20.230469 C 46.839844 -16.132812 45.929688 -12.476562 44.117188 -9.257812 C 42.300781 -6.042969 39.785156 -3.527344 36.566406 -1.710938 C 33.351562 0.105469 29.644531 1.011719 25.441406 1.011719 Z M 10.582031 -20.230469 C 10.582031 -17.273438 11.21875 -14.667969 12.488281 -12.410156 C 13.757812 -10.152344 15.507812 -8.402344 17.738281 -7.15625 C 19.96875 -5.914062 22.539062 -5.289062 25.441406 -5.289062 C 28.347656 -5.289062 30.914062 -5.914062 33.144531 -7.15625 C 35.375 -8.402344 37.125 -10.152344 38.398438 -12.410156 C 39.667969 -14.667969 40.304688 -17.273438 40.304688 -20.230469 C 40.304688 -23.1875 39.667969 -25.78125 38.398438 -28.011719 C 37.125 -30.238281 35.375 -31.992188 33.144531 -33.261719 C 30.914062 -34.53125 28.347656 -35.167969 25.441406 -35.167969 C 22.539062 -35.167969 19.96875 -34.53125 17.738281 -33.261719 C 15.507812 -31.992188 13.757812 -30.238281 12.488281 -28.011719 C 11.21875 -25.78125 10.582031 -23.1875 10.582031 -20.230469 Z M 10.582031 -20.230469 "/></g></g></g><g fill="#ffffff" fill-opacity="1"><g transform="translate(162.078128, 232.399847)"><g><path d="M 24.742188 1.011719 C 20.695312 1.011719 17.117188 0.117188 14.003906 -1.671875 C 10.894531 -3.460938 8.453125 -5.964844 6.691406 -9.179688 C 4.925781 -12.398438 4.046875 -16.078125 4.046875 -20.230469 C 4.046875 -24.378906 4.925781 -28.046875 6.691406 -31.238281 C 8.453125 -34.429688 10.90625 -36.917969 14.042969 -38.707031 C 17.183594 -40.496094 20.773438 -41.390625 24.820312 -41.390625 C 29.125 -41.390625 32.859375 -40.378906 36.023438 -38.359375 C 39.1875 -36.335938 41.613281 -33.546875 43.296875 -29.992188 C 44.984375 -26.441406 45.75 -22.304688 45.59375 -17.582031 L 10.660156 -17.582031 C 11.179688 -13.796875 12.707031 -10.777344 15.25 -8.519531 C 17.792969 -6.261719 20.980469 -5.136719 24.820312 -5.136719 C 27.464844 -5.136719 29.878906 -5.707031 32.054688 -6.847656 C 34.234375 -7.988281 35.945312 -9.621094 37.191406 -11.75 L 44.582031 -11.75 C 42.972656 -7.804688 40.40625 -4.695312 36.878906 -2.410156 C 33.351562 -0.128906 29.304688 1.011719 24.742188 1.011719 Z M 10.738281 -23.339844 L 39.058594 -23.339844 C 38.382812 -27.023438 36.761719 -29.929688 34.195312 -32.054688 C 31.628906 -34.183594 28.503906 -35.246094 24.820312 -35.246094 C 21.085938 -35.246094 17.945312 -34.15625 15.40625 -31.976562 C 12.863281 -29.800781 11.308594 -26.921875 10.738281 -23.339844 Z M 10.738281 -23.339844 "/></g></g></g><g fill="#ffffff" fill-opacity="1"><g transform="translate(204.712643, 232.399847)"><g><path d="M 3.734375 0 L 3.734375 -4.902344 L 28.011719 -34.390625 L 4.511719 -34.390625 L 4.511719 -40.378906 L 36.878906 -40.378906 L 36.878906 -35.480469 L 12.761719 -5.992188 L 37.347656 -5.992188 L 37.347656 0 Z M 3.734375 0 "/></g></g></g><g fill="#ffffff" fill-opacity="1"><g transform="translate(238.871092, 232.399847)"><g/></g></g><g fill="#ffffff" fill-opacity="1"><g transform="translate(251.318864, 232.399847)"><g/></g></g><g fill="#ffffff" fill-opacity="1"><g transform="translate(263.773434, 232.399847)"><g><path d="M 1.324219 0 L 23.730469 -54.464844 L 30.109375 -54.464844 L 52.519531 0 L 45.28125 0 L 40.148438 -12.371094 L 13.617188 -12.371094 L 8.636719 0 Z M 16.261719 -18.75 L 37.578125 -18.75 L 26.921875 -44.894531 Z M 16.261719 -18.75 "/></g></g></g><g fill="#ffffff" fill-opacity="1"><g transform="translate(310.764794, 232.399847)"><g><path d="M 7.9375 -54.464844 L 14.78125 -54.464844 L 14.78125 0 L 7.9375 0 Z M 7.9375 -54.464844 "/></g></g></g><g clip-path="url(#0abe3c365e)"><g clip-path="url(#f2f1ee9da2)"><g clip-path="url(#2ec4426f44)"><path fill="#ffffff" d="M 207.628906 166 C 207.59375 166.019531 206.476562 166.394531 205.148438 166.835938 C 202.867188 167.589844 202.710938 167.628906 202.421875 167.523438 C 201.804688 167.300781 201.34375 167.503906 201.128906 168.101562 L 201.015625 168.410156 L 198.667969 169.019531 C 197.375 169.355469 194.429688 170.117188 192.125 170.710938 C 189.820312 171.304688 187.367188 171.980469 186.671875 172.210938 C 184.289062 172.996094 179.894531 174.121094 176.617188 174.78125 C 162.953125 177.539062 150.21875 177.78125 138.449219 175.507812 C 137.527344 175.332031 137.34375 175.308594 137.914062 175.449219 C 139.105469 175.742188 142.355469 176.300781 144.265625 176.542969 C 153.65625 177.734375 163.617188 177.425781 174.144531 175.625 C 178.027344 174.960938 183.503906 173.699219 186.1875 172.847656 C 187.117188 172.554688 187.167969 172.578125 186.644531 173.0625 C 184.710938 174.859375 181.304688 177.003906 178.382812 178.265625 C 172.914062 180.621094 166.023438 182.300781 160.097656 182.71875 C 159.070312 182.792969 158.234375 182.828125 158.242188 182.796875 C 158.25 182.765625 158.582031 182.601562 158.976562 182.433594 C 160.21875 181.90625 163.246094 179.890625 163.546875 179.386719 C 163.582031 179.328125 163.152344 179.539062 162.59375 179.855469 C 157.839844 182.523438 151.601562 183.371094 144.464844 182.316406 C 142.460938 182.019531 140.695312 181.640625 138.539062 181.042969 C 136.628906 180.511719 134.039062 179.632812 134.070312 179.527344 C 134.074219 179.5 135.285156 179.589844 136.757812 179.726562 C 138.226562 179.867188 139.425781 179.96875 139.417969 179.953125 C 139.410156 179.941406 138.746094 179.753906 137.941406 179.535156 C 135.558594 178.886719 133.585938 178.113281 131.425781 176.988281 C 125.800781 174.054688 120.5 168.933594 117.007812 163.058594 C 116.414062 162.066406 116.382812 161.839844 116.933594 162.535156 C 118.542969 164.574219 123.394531 167.640625 128.417969 169.789062 C 130.5625 170.707031 132.402344 171.074219 134.113281 170.917969 C 135.59375 170.785156 136.511719 170.425781 139.945312 168.644531 C 142.109375 167.519531 143.253906 167.125 144.925781 166.921875 C 147.152344 166.652344 149.472656 166.996094 152.695312 168.074219 C 153.699219 168.410156 155.207031 168.898438 156.042969 169.164062 C 157.84375 169.726562 163.203125 171.214844 163.09375 171.121094 C 163.019531 171.054688 162.394531 170.8125 158.710938 169.429688 C 157.757812 169.070312 156.917969 168.746094 156.847656 168.707031 C 156.6875 168.621094 156.671875 168.621094 158.421875 168.746094 C 161.480469 168.964844 164.039062 168.929688 168.820312 168.59375 C 175.523438 168.121094 178.3125 168.207031 181.457031 168.984375 C 182.859375 169.332031 184.355469 169.859375 185.46875 170.394531 C 185.789062 170.550781 186.058594 170.65625 186.066406 170.628906 C 186.070312 170.601562 185.929688 170.453125 185.753906 170.296875 C 185.28125 169.882812 184.199219 169.363281 183.34375 169.140625 C 182.9375 169.03125 182.625 168.933594 182.652344 168.917969 C 182.839844 168.808594 183.5625 168.886719 184.195312 169.085938 C 184.746094 169.257812 185.199219 169.488281 185.894531 169.957031 C 186.414062 170.308594 186.867188 170.582031 186.898438 170.566406 C 186.929688 170.550781 186.855469 170.359375 186.730469 170.144531 C 186.445312 169.652344 185.792969 169.183594 184.949219 168.863281 C 184.617188 168.738281 184.367188 168.625 184.394531 168.609375 C 184.417969 168.59375 184.652344 168.605469 184.910156 168.628906 C 185.828125 168.71875 187.058594 169.550781 187.9375 170.671875 C 188.160156 170.953125 188.398438 171.1875 188.464844 171.1875 C 188.640625 171.195312 191.261719 170.414062 192.722656 169.917969 C 194.375 169.359375 194.851562 169.121094 196.800781 167.863281 C 197.722656 167.265625 199.011719 166.441406 199.664062 166.03125 L 200.84375 165.28125 L 202.390625 165.714844 C 203.917969 166.144531 205.269531 166.375 206.019531 166.335938 C 206.3125 166.320312 206.476562 166.257812 206.699219 166.078125 C 206.910156 165.914062 207.085938 165.839844 207.300781 165.828125 C 207.585938 165.816406 207.773438 165.914062 207.628906 166 Z M 206.261719 166.148438 C 205.5 166.304688 202.800781 165.722656 201.152344 165.039062 L 200.808594 164.898438 L 199.820312 165.535156 C 199.277344 165.882812 197.910156 166.78125 196.78125 167.523438 C 195.050781 168.671875 194.625 168.921875 194.027344 169.160156 C 193.613281 169.324219 193.347656 169.390625 193.390625 169.324219 C 193.429688 169.257812 193.871094 168.9375 194.375 168.613281 C 195.273438 168.027344 199.25 165.378906 200.183594 164.75 L 200.664062 164.421875 L 201.429688 164.75 C 202.195312 165.078125 204.460938 165.722656 205.746094 165.976562 C 206.121094 166.050781 206.351562 166.128906 206.261719 166.148438 Z M 206.261719 166.148438 " fill-opacity="1" fill-rule="nonzero"/></g></g></g><g clip-path="url(#f909644809)"><path fill="#ffffff" d="M 322.40625 160.832031 C 322.464844 161.390625 322.617188 161.925781 322.859375 162.433594 C 323.105469 162.941406 323.425781 163.394531 323.824219 163.792969 C 324.222656 164.1875 324.675781 164.511719 325.179688 164.753906 C 325.6875 164.996094 326.222656 165.148438 326.78125 165.210938 C 328.125 165.355469 329.859375 165.453125 332.101562 165.453125 C 329.859375 165.453125 328.125 165.546875 326.78125 165.695312 C 326.222656 165.753906 325.6875 165.90625 325.179688 166.152344 C 324.675781 166.394531 324.222656 166.714844 323.824219 167.113281 C 323.425781 167.511719 323.105469 167.964844 322.859375 168.472656 C 322.617188 168.980469 322.464844 169.511719 322.40625 170.074219 C 322.257812 171.417969 322.160156 173.152344 322.160156 175.390625 C 322.160156 173.152344 322.066406 171.417969 321.917969 170.074219 C 321.859375 169.511719 321.707031 168.980469 321.464844 168.472656 C 321.21875 167.964844 320.898438 167.511719 320.5 167.113281 C 320.101562 166.714844 319.648438 166.394531 319.140625 166.152344 C 318.636719 165.90625 318.101562 165.753906 317.542969 165.695312 C 316.199219 165.546875 314.464844 165.453125 312.222656 165.453125 C 314.464844 165.453125 316.199219 165.355469 317.542969 165.210938 C 318.101562 165.148438 318.636719 164.996094 319.140625 164.753906 C 319.648438 164.511719 320.101562 164.1875 320.5 163.792969 C 320.898438 163.394531 321.21875 162.941406 321.464844 162.433594 C 321.707031 161.925781 321.859375 161.390625 321.917969 160.832031 C 322.066406 159.488281 322.160156 157.753906 322.160156 155.515625 C 322.160156 157.753906 322.257812 159.488281 322.40625 160.832031 Z M 322.40625 160.832031 " fill-opacity="1" fill-rule="nonzero"/></g></svg>