<svg xmlns="http://www.w3.org/2000/svg" xmlns:xlink="http://www.w3.org/1999/xlink" width="500" zoomAndPan="magnify" viewBox="0 0 375 374.999991" height="500" preserveAspectRatio="xMidYMid meet" version="1.0"><defs><clipPath id="3901f64e36"><path d="M 72.253906 72.644531 L 302.863281 72.644531 L 302.863281 302.355469 L 72.253906 302.355469 Z M 72.253906 72.644531 " clip-rule="nonzero"/></clipPath><clipPath id="a8a0be8240"><path d="M 98.503906 72.644531 L 276.496094 72.644531 C 283.457031 72.644531 290.132812 75.410156 295.058594 80.332031 C 299.980469 85.257812 302.746094 91.933594 302.746094 98.894531 L 302.746094 276.105469 C 302.746094 283.066406 299.980469 289.742188 295.058594 294.667969 C 290.132812 299.589844 283.457031 302.355469 276.496094 302.355469 L 98.503906 302.355469 C 91.542969 302.355469 84.867188 299.589844 79.941406 294.667969 C 75.019531 289.742188 72.253906 283.066406 72.253906 276.105469 L 72.253906 98.894531 C 72.253906 91.933594 75.019531 85.257812 79.941406 80.332031 C 84.867188 75.410156 91.542969 72.644531 98.503906 72.644531 Z M 98.503906 72.644531 " clip-rule="nonzero"/></clipPath><clipPath id="1eaaf9c75d"><path d="M 152.085938 134 L 234 134 L 234 263 L 152.085938 263 Z M 152.085938 134 " clip-rule="nonzero"/></clipPath><clipPath id="8ce185886a"><path d="M 128 137 L 280 137 L 280 173 L 128 173 Z M 128 137 " clip-rule="nonzero"/></clipPath><clipPath id="53c20e5a41"><path d="M 168.332031 208.609375 L 127.039062 137.285156 L 239.429688 72.222656 L 280.722656 143.546875 Z M 168.332031 208.609375 " clip-rule="nonzero"/></clipPath><clipPath id="d30e867acc"><path d="M 168.332031 208.609375 L 127.039062 137.285156 L 239.429688 72.222656 L 280.722656 143.546875 Z M 168.332031 208.609375 " clip-rule="nonzero"/></clipPath></defs><g clip-path="url(#3901f64e36)"><g clip-path="url(#a8a0be8240)"><path fill="#000000" d="M 72.253906 72.644531 L 302.863281 72.644531 L 302.863281 302.355469 L 72.253906 302.355469 Z M 72.253906 72.644531 " fill-opacity="1" fill-rule="nonzero"/></g></g><g clip-path="url(#1eaaf9c75d)"><path fill="#ffffff" d="M 152.085938 262.414062 C 152.085938 262.34375 152.476562 260.421875 152.949219 258.140625 C 153.765625 254.226562 153.839844 253.972656 154.234375 253.640625 C 155.070312 252.9375 155.160156 252.101562 154.480469 251.292969 L 154.125 250.875 L 155.207031 246.980469 C 155.800781 244.839844 157.160156 239.964844 158.226562 236.144531 C 159.292969 232.328125 160.367188 228.230469 160.617188 227.035156 C 161.46875 222.945312 163.515625 215.675781 165.292969 210.40625 C 172.722656 188.417969 182.996094 169.863281 196.089844 154.800781 C 197.113281 153.621094 197.300781 153.371094 196.621094 154.078125 C 195.207031 155.550781 191.691406 159.765625 189.746094 162.320312 C 180.199219 174.855469 172.328125 189.46875 166.144531 206.140625 C 163.863281 212.285156 161.113281 221.226562 160.101562 225.804688 C 159.75 227.390625 159.671875 227.445312 159.410156 226.289062 C 158.433594 222.003906 158.1875 215.304688 158.808594 210.042969 C 159.972656 200.199219 163.300781 188.871094 167.640625 179.976562 C 168.394531 178.433594 169.042969 177.203125 169.078125 177.242188 C 169.117188 177.277344 169.074219 177.890625 168.984375 178.601562 C 168.707031 180.832031 169.09375 186.871094 169.566406 187.730469 C 169.617188 187.828125 169.671875 187.03125 169.6875 185.964844 C 169.808594 176.890625 173.792969 167.191406 181.261719 157.792969 C 183.359375 155.152344 185.378906 152.921875 188.042969 150.316406 C 190.402344 148.007812 193.820312 145.007812 193.949219 145.136719 C 193.984375 145.167969 192.847656 146.835938 191.421875 148.84375 C 189.996094 150.847656 188.851562 152.488281 188.875 152.488281 C 188.898438 152.488281 189.726562 151.6875 190.714844 150.714844 C 193.632812 147.820312 196.390625 145.621094 199.820312 143.445312 C 208.738281 137.785156 220.535156 134.421875 231.914062 134.289062 C 233.839844 134.265625 234.191406 134.410156 232.730469 134.621094 C 228.449219 135.238281 219.988281 139.671875 212.695312 145.117188 C 209.585938 147.441406 207.527344 149.785156 206.320312 152.382812 C 205.277344 154.625 205.027344 156.25 204.734375 162.683594 C 204.546875 166.738281 204.160156 168.71875 203.058594 171.296875 C 201.589844 174.726562 199.15625 177.78125 194.914062 181.53125 C 193.59375 182.699219 191.632812 184.457031 190.558594 185.445312 C 188.242188 187.566406 181.628906 194.050781 181.855469 193.972656 C 182.007812 193.921875 182.882812 193.21875 187.945312 189.070312 C 189.261719 187.992188 190.425781 187.054688 190.539062 186.984375 C 190.796875 186.828125 190.8125 186.804688 189.171875 189.21875 C 186.304688 193.441406 184.226562 197.160156 180.71875 204.332031 C 175.808594 214.382812 173.355469 218.328125 169.613281 222.210938 C 167.941406 223.945312 165.9375 225.660156 164.234375 226.816406 C 163.746094 227.152344 163.371094 227.449219 163.402344 227.480469 C 163.433594 227.515625 163.765625 227.4375 164.140625 227.308594 C 165.128906 226.972656 166.777344 225.847656 167.816406 224.804688 C 168.3125 224.304688 168.714844 223.9375 168.714844 223.988281 C 168.714844 224.351562 168 225.328125 167.183594 226.074219 C 166.476562 226.726562 165.765625 227.179688 164.511719 227.792969 C 163.570312 228.25 162.800781 228.675781 162.796875 228.734375 C 162.792969 228.792969 163.128906 228.84375 163.546875 228.84375 C 164.492188 228.84375 165.710938 228.292969 166.878906 227.34375 C 167.332031 226.972656 167.703125 226.710938 167.703125 226.757812 C 167.703125 226.804688 167.496094 227.132812 167.242188 227.484375 C 166.347656 228.730469 164.128906 229.8125 161.777344 230.144531 C 161.1875 230.226562 160.652344 230.375 160.59375 230.472656 C 160.4375 230.722656 159.378906 235.152344 158.871094 237.664062 C 158.296875 240.511719 158.246094 241.398438 158.429688 245.257812 C 158.519531 247.085938 158.632812 249.628906 158.683594 250.910156 L 158.777344 253.238281 L 156.859375 255.101562 C 154.96875 256.949219 153.507812 258.703125 152.941406 259.816406 C 152.71875 260.25 152.671875 260.535156 152.742188 261.007812 C 152.808594 261.453125 152.769531 261.761719 152.601562 262.085938 C 152.382812 262.507812 152.085938 262.695312 152.085938 262.414062 Z M 153.011719 260.320312 C 153.417969 259.09375 156.511719 255.691406 158.867188 253.882812 L 159.359375 253.507812 L 159.269531 251.550781 C 159.21875 250.476562 159.066406 247.757812 158.933594 245.515625 C 158.726562 242.058594 158.71875 241.242188 158.878906 240.179688 C 158.984375 239.445312 159.109375 239.007812 159.171875 239.125 C 159.230469 239.238281 159.324219 240.140625 159.375 241.136719 C 159.472656 242.921875 159.964844 250.859375 160.097656 252.730469 L 160.164062 253.695312 L 159.054688 254.527344 C 157.941406 255.355469 155.125 258.082031 153.683594 259.71875 C 153.265625 260.195312 152.960938 260.464844 153.011719 260.320312 Z M 153.011719 260.320312 " fill-opacity="1" fill-rule="nonzero"/></g><g clip-path="url(#8ce185886a)"><g clip-path="url(#53c20e5a41)"><g clip-path="url(#d30e867acc)"><path fill="#ffffff" d="M 279.75 144.109375 C 279.691406 144.140625 277.832031 144.769531 275.617188 145.5 C 271.820312 146.753906 271.566406 146.820312 271.082031 146.644531 C 270.050781 146.273438 269.285156 146.617188 268.925781 147.609375 L 268.738281 148.125 L 264.828125 149.140625 C 262.675781 149.695312 257.777344 150.964844 253.9375 151.953125 C 250.101562 152.945312 246.015625 154.066406 244.855469 154.449219 C 240.890625 155.761719 233.578125 157.632812 228.121094 158.734375 C 205.371094 163.324219 184.164062 163.726562 164.570312 159.941406 C 163.039062 159.644531 162.726562 159.613281 163.679688 159.84375 C 165.664062 160.332031 171.070312 161.261719 174.257812 161.664062 C 189.886719 163.644531 206.476562 163.136719 224.003906 160.136719 C 230.46875 159.03125 239.582031 156.929688 244.050781 155.511719 C 245.597656 155.023438 245.683594 155.0625 244.816406 155.871094 C 241.59375 158.859375 235.921875 162.433594 231.058594 164.53125 C 221.953125 168.457031 210.484375 171.25 200.613281 171.949219 C 198.902344 172.070312 197.511719 172.125 197.523438 172.074219 C 197.539062 172.023438 198.085938 171.753906 198.746094 171.476562 C 200.816406 170.597656 205.851562 167.238281 206.359375 166.398438 C 206.414062 166.304688 205.699219 166.65625 204.765625 167.179688 C 196.855469 171.621094 186.46875 173.03125 174.589844 171.277344 C 171.25 170.785156 168.3125 170.152344 164.722656 169.152344 C 161.542969 168.269531 157.230469 166.8125 157.277344 166.636719 C 157.289062 166.589844 159.304688 166.738281 161.753906 166.96875 C 164.203125 167.195312 166.195312 167.367188 166.183594 167.34375 C 166.171875 167.324219 165.066406 167.007812 163.726562 166.644531 C 159.761719 165.5625 156.472656 164.28125 152.875 162.402344 C 143.507812 157.519531 134.683594 148.996094 128.871094 139.214844 C 127.886719 137.558594 127.832031 137.183594 128.746094 138.339844 C 131.429688 141.738281 139.503906 146.839844 147.867188 150.421875 C 151.441406 151.949219 154.5 152.558594 157.351562 152.300781 C 159.816406 152.078125 161.347656 151.480469 167.0625 148.511719 C 170.664062 146.640625 172.570312 145.984375 175.355469 145.648438 C 179.058594 145.199219 182.921875 145.773438 188.292969 147.566406 C 189.964844 148.125 192.46875 148.9375 193.863281 149.375 C 196.859375 150.316406 205.785156 152.792969 205.601562 152.632812 C 205.480469 152.527344 204.4375 152.125 198.308594 149.820312 C 196.714844 149.222656 195.320312 148.683594 195.203125 148.621094 C 194.9375 148.476562 194.914062 148.476562 197.824219 148.683594 C 202.914062 149.050781 207.171875 148.988281 215.136719 148.425781 C 226.292969 147.644531 230.9375 147.789062 236.175781 149.082031 C 238.511719 149.660156 241 150.535156 242.855469 151.429688 C 243.390625 151.6875 243.835938 151.859375 243.847656 151.816406 C 243.859375 151.773438 243.625 151.523438 243.328125 151.261719 C 242.542969 150.578125 240.742188 149.714844 239.320312 149.339844 C 238.640625 149.160156 238.121094 148.992188 238.164062 148.964844 C 238.476562 148.785156 239.683594 148.917969 240.734375 149.246094 C 241.65625 149.535156 242.402344 149.921875 243.5625 150.699219 C 244.429688 151.285156 245.183594 151.742188 245.238281 151.714844 C 245.289062 151.6875 245.164062 151.371094 244.953125 151.007812 C 244.480469 150.191406 243.394531 149.410156 241.988281 148.878906 C 241.4375 148.671875 241.023438 148.480469 241.066406 148.457031 C 241.105469 148.433594 241.496094 148.449219 241.925781 148.492188 C 243.453125 148.640625 245.5 150.019531 246.964844 151.886719 C 247.335938 152.359375 247.730469 152.746094 247.84375 152.75 C 248.136719 152.757812 252.5 151.457031 254.929688 150.636719 C 257.683594 149.707031 258.476562 149.308594 261.722656 147.214844 C 263.261719 146.21875 265.40625 144.847656 266.488281 144.160156 L 268.453125 142.917969 L 271.03125 143.636719 C 273.574219 144.351562 275.824219 144.738281 277.070312 144.671875 C 277.558594 144.644531 277.828125 144.542969 278.203125 144.242188 C 278.554688 143.964844 278.84375 143.84375 279.207031 143.828125 C 279.679688 143.804688 279.992188 143.964844 279.75 144.109375 Z M 277.476562 144.355469 C 276.207031 144.621094 271.714844 143.644531 268.96875 142.511719 L 268.394531 142.277344 L 266.75 143.335938 C 265.84375 143.917969 263.566406 145.410156 261.691406 146.648438 C 258.808594 148.558594 258.101562 148.976562 257.101562 149.371094 C 256.414062 149.644531 255.972656 149.757812 256.042969 149.644531 C 256.109375 149.535156 256.847656 149.003906 257.679688 148.460938 C 259.179688 147.484375 265.800781 143.078125 267.355469 142.027344 L 268.15625 141.484375 L 269.429688 142.03125 C 270.707031 142.574219 274.480469 143.648438 276.613281 144.074219 C 277.238281 144.199219 277.625 144.324219 277.476562 144.355469 Z M 277.476562 144.355469 " fill-opacity="1" fill-rule="nonzero"/></g></g></g></svg>