<svg xmlns="http://www.w3.org/2000/svg" xmlns:xlink="http://www.w3.org/1999/xlink" width="500" zoomAndPan="magnify" viewBox="0 0 375 374.999991" height="500" preserveAspectRatio="xMidYMid meet" version="1.0"><defs><clipPath id="d2c8c773b0"><path d="M 72.253906 72.644531 L 302.863281 72.644531 L 302.863281 302.355469 L 72.253906 302.355469 Z M 72.253906 72.644531 " clip-rule="nonzero"/></clipPath><clipPath id="adce8bbf7a"><path d="M 98.503906 72.644531 L 276.496094 72.644531 C 283.457031 72.644531 290.132812 75.410156 295.058594 80.332031 C 299.980469 85.257812 302.746094 91.933594 302.746094 98.894531 L 302.746094 276.105469 C 302.746094 283.066406 299.980469 289.742188 295.058594 294.667969 C 290.132812 299.589844 283.457031 302.355469 276.496094 302.355469 L 98.503906 302.355469 C 91.542969 302.355469 84.867188 299.589844 79.941406 294.667969 C 75.019531 289.742188 72.253906 283.066406 72.253906 276.105469 L 72.253906 98.894531 C 72.253906 91.933594 75.019531 85.257812 79.941406 80.332031 C 84.867188 75.410156 91.542969 72.644531 98.503906 72.644531 Z M 98.503906 72.644531 " clip-rule="nonzero"/></clipPath><clipPath id="570e742e35"><path d="M 152.085938 134 L 234.5 134 L 234.5 263 L 152.085938 263 Z M 152.085938 134 " clip-rule="nonzero"/></clipPath><clipPath id="c18e0579bd"><path d="M 127 137 L 280 137 L 280 172 L 127 172 Z M 127 137 " clip-rule="nonzero"/></clipPath><clipPath id="e602b73ef2"><path d="M 168.332031 208.613281 L 127.039062 137.285156 L 239.429688 72.222656 L 280.722656 143.546875 Z M 168.332031 208.613281 " clip-rule="nonzero"/></clipPath><clipPath id="6eb92f4e0a"><path d="M 168.332031 208.613281 L 127.039062 137.285156 L 239.429688 72.222656 L 280.722656 143.546875 Z M 168.332031 208.613281 " clip-rule="nonzero"/></clipPath><clipPath id="ef05161e6e"><path d="M 168.332031 208.613281 L 127.039062 137.285156 L 239.429688 72.222656 L 280.722656 143.546875 Z M 168.332031 208.613281 " clip-rule="nonzero"/></clipPath></defs><g clip-path="url(#d2c8c773b0)"><g clip-path="url(#adce8bbf7a)"><path fill="#ffffff" d="M 72.253906 72.644531 L 302.863281 72.644531 L 302.863281 302.355469 L 72.253906 302.355469 Z M 72.253906 72.644531 " fill-opacity="1" fill-rule="nonzero"/></g></g><g clip-path="url(#570e742e35)"><path fill="#000000" d="M 152.085938 262.589844 C 152.085938 262.519531 152.476562 260.59375 152.953125 258.308594 C 153.773438 254.390625 153.847656 254.136719 154.242188 253.800781 C 155.085938 253.097656 155.171875 252.261719 154.492188 251.453125 L 154.136719 251.03125 L 155.222656 247.132812 C 155.820312 244.988281 157.183594 240.109375 158.257812 236.285156 C 159.328125 232.460938 160.40625 228.355469 160.65625 227.160156 C 161.515625 223.066406 163.566406 215.789062 165.359375 210.507812 C 172.820312 188.492188 183.144531 169.914062 196.300781 154.828125 C 197.328125 153.648438 197.515625 153.398438 196.832031 154.105469 C 195.410156 155.582031 191.878906 159.800781 189.925781 162.359375 C 180.335938 174.910156 172.425781 189.542969 166.210938 206.238281 C 163.917969 212.394531 161.15625 221.347656 160.140625 225.929688 C 159.789062 227.515625 159.707031 227.570312 159.445312 226.414062 C 158.464844 222.121094 158.214844 215.414062 158.839844 210.148438 C 160.007812 200.289062 163.351562 188.945312 167.714844 180.042969 C 168.472656 178.496094 169.121094 177.261719 169.160156 177.300781 C 169.195312 177.335938 169.15625 177.949219 169.066406 178.660156 C 168.789062 180.894531 169.171875 186.945312 169.648438 187.804688 C 169.703125 187.902344 169.757812 187.105469 169.769531 186.035156 C 169.890625 176.949219 173.894531 167.238281 181.398438 157.824219 C 183.507812 155.179688 185.535156 152.949219 188.210938 150.339844 C 190.582031 148.027344 194.019531 145.023438 194.148438 145.152344 C 194.183594 145.183594 193.039062 146.855469 191.609375 148.863281 C 190.175781 150.871094 189.027344 152.511719 189.050781 152.511719 C 189.074219 152.511719 189.90625 151.714844 190.898438 150.734375 C 193.832031 147.839844 196.601562 145.636719 200.046875 143.457031 C 209.007812 137.792969 220.859375 134.421875 232.292969 134.289062 C 234.226562 134.265625 234.582031 134.410156 233.117188 134.621094 C 228.8125 135.242188 220.3125 139.679688 212.984375 145.132812 C 209.859375 147.460938 207.789062 149.808594 206.578125 152.40625 C 205.53125 154.652344 205.28125 156.28125 204.984375 162.722656 C 204.796875 166.785156 204.410156 168.765625 203.300781 171.347656 C 201.824219 174.78125 199.382812 177.84375 195.117188 181.597656 C 193.792969 182.761719 191.820312 184.527344 190.742188 185.515625 C 188.414062 187.640625 181.769531 194.132812 181.996094 194.054688 C 182.152344 194.003906 183.027344 193.300781 188.117188 189.144531 C 189.4375 188.066406 190.609375 187.125 190.722656 187.058594 C 190.980469 186.898438 190.996094 186.875 189.347656 189.292969 C 186.46875 193.523438 184.378906 197.246094 180.855469 204.425781 C 175.921875 214.492188 173.457031 218.441406 169.695312 222.332031 C 168.015625 224.066406 166.003906 225.785156 164.292969 226.945312 C 163.800781 227.277344 163.421875 227.578125 163.457031 227.609375 C 163.488281 227.640625 163.824219 227.5625 164.199219 227.4375 C 165.191406 227.097656 166.847656 225.972656 167.890625 224.925781 C 168.386719 224.429688 168.796875 224.0625 168.796875 224.113281 C 168.796875 224.476562 168.074219 225.453125 167.257812 226.199219 C 166.542969 226.851562 165.832031 227.308594 164.570312 227.921875 C 163.625 228.378906 162.851562 228.804688 162.847656 228.863281 C 162.84375 228.921875 163.179688 228.972656 163.601562 228.972656 C 164.550781 228.972656 165.777344 228.421875 166.949219 227.46875 C 167.40625 227.101562 167.777344 226.835938 167.777344 226.882812 C 167.777344 226.929688 167.570312 227.257812 167.316406 227.613281 C 166.417969 228.859375 164.183594 229.941406 161.824219 230.273438 C 161.230469 230.359375 160.695312 230.507812 160.632812 230.605469 C 160.476562 230.851562 159.410156 235.289062 158.902344 237.804688 C 158.324219 240.65625 158.273438 241.542969 158.460938 245.40625 C 158.550781 247.238281 158.664062 249.785156 158.714844 251.066406 L 158.808594 253.398438 L 156.882812 255.269531 C 154.980469 257.117188 153.515625 258.871094 152.945312 259.984375 C 152.722656 260.421875 152.675781 260.707031 152.746094 261.183594 C 152.8125 261.625 152.769531 261.9375 152.605469 262.257812 C 152.386719 262.679688 152.085938 262.871094 152.085938 262.589844 Z M 153.015625 260.492188 C 153.425781 259.261719 156.53125 255.855469 158.898438 254.046875 L 159.394531 253.667969 L 159.300781 251.710938 C 159.25 250.632812 159.101562 247.914062 158.964844 245.664062 C 158.757812 242.207031 158.75 241.386719 158.910156 240.320312 C 159.019531 239.589844 159.140625 239.148438 159.207031 239.269531 C 159.265625 239.378906 159.359375 240.285156 159.410156 241.28125 C 159.507812 243.070312 160.003906 251.015625 160.136719 252.890625 L 160.203125 253.859375 L 159.085938 254.6875 C 157.972656 255.519531 155.136719 258.25 153.691406 259.890625 C 153.269531 260.367188 152.964844 260.636719 153.015625 260.492188 Z M 153.015625 260.492188 " fill-opacity="1" fill-rule="nonzero"/></g><g clip-path="url(#c18e0579bd)"><g clip-path="url(#e602b73ef2)"><g clip-path="url(#6eb92f4e0a)"><g clip-path="url(#ef05161e6e)"><path fill="#000000" d="M 279.898438 144.019531 C 279.839844 144.054688 277.980469 144.679688 275.761719 145.414062 C 271.960938 146.667969 271.703125 146.730469 271.214844 146.554688 C 270.183594 146.179688 269.414062 146.523438 269.058594 147.519531 L 268.871094 148.035156 L 264.953125 149.050781 C 262.800781 149.605469 257.890625 150.871094 254.042969 151.859375 C 250.199219 152.847656 246.105469 153.96875 244.945312 154.351562 C 240.972656 155.664062 233.644531 157.53125 228.179688 158.628906 C 205.386719 163.199219 184.132812 163.574219 164.488281 159.746094 C 162.953125 159.445312 162.640625 159.414062 163.597656 159.648438 C 165.585938 160.136719 171.007812 161.082031 174.199219 161.488281 C 189.867188 163.5 206.492188 163.015625 224.054688 160.03125 C 230.53125 158.929688 239.664062 156.832031 244.140625 155.417969 C 245.691406 154.925781 245.777344 154.96875 244.90625 155.777344 C 241.683594 158.773438 236.003906 162.351562 231.132812 164.449219 C 222.015625 168.378906 210.519531 171.167969 200.628906 171.851562 C 198.914062 171.972656 197.519531 172.027344 197.535156 171.976562 C 197.546875 171.925781 198.097656 171.652344 198.757812 171.375 C 200.832031 170.496094 205.875 167.132812 206.378906 166.289062 C 206.4375 166.195312 205.71875 166.546875 204.785156 167.070312 C 196.863281 171.519531 186.453125 172.917969 174.546875 171.140625 C 171.203125 170.640625 168.253906 170.003906 164.65625 168.996094 C 161.464844 168.101562 157.144531 166.632812 157.191406 166.457031 C 157.203125 166.410156 159.222656 166.5625 161.675781 166.796875 C 164.132812 167.027344 166.128906 167.203125 166.117188 167.179688 C 166.105469 167.160156 164.996094 166.839844 163.65625 166.472656 C 159.679688 165.382812 156.382812 164.089844 152.769531 162.199219 C 143.378906 157.285156 134.523438 148.714844 128.679688 138.886719 C 127.691406 137.222656 127.636719 136.84375 128.554688 138.007812 C 131.246094 141.421875 139.347656 146.554688 147.738281 150.164062 C 151.320312 151.707031 154.386719 152.320312 157.242188 152.0625 C 159.710938 151.84375 161.246094 151.246094 166.96875 148.277344 C 170.578125 146.402344 172.488281 145.746094 175.277344 145.410156 C 178.988281 144.96875 182.863281 145.550781 188.246094 147.359375 C 189.921875 147.921875 192.433594 148.742188 193.832031 149.183594 C 196.835938 150.128906 205.785156 152.628906 205.601562 152.472656 C 205.480469 152.363281 204.433594 151.957031 198.285156 149.636719 C 196.691406 149.03125 195.292969 148.488281 195.175781 148.425781 C 194.90625 148.28125 194.882812 148.28125 197.800781 148.496094 C 202.902344 148.871094 207.171875 148.8125 215.148438 148.261719 C 226.332031 147.492188 230.988281 147.644531 236.238281 148.949219 C 238.582031 149.535156 241.078125 150.414062 242.9375 151.316406 C 243.472656 151.574219 243.917969 151.75 243.929688 151.707031 C 243.941406 151.660156 243.707031 151.410156 243.410156 151.148438 C 242.621094 150.460938 240.816406 149.589844 239.390625 149.210938 C 238.707031 149.03125 238.1875 148.863281 238.230469 148.835938 C 238.542969 148.65625 239.753906 148.789062 240.808594 149.121094 C 241.730469 149.414062 242.480469 149.800781 243.644531 150.585938 C 244.511719 151.171875 245.269531 151.632812 245.324219 151.605469 C 245.375 151.578125 245.25 151.261719 245.039062 150.898438 C 244.5625 150.078125 243.472656 149.289062 242.0625 148.753906 C 241.511719 148.542969 241.097656 148.351562 241.136719 148.328125 C 241.179688 148.304688 241.566406 148.320312 242 148.363281 C 243.53125 148.515625 245.585938 149.90625 247.054688 151.785156 C 247.425781 152.253906 247.824219 152.644531 247.9375 152.648438 C 248.230469 152.660156 252.601562 151.359375 255.035156 150.539062 C 257.792969 149.609375 258.585938 149.210938 261.835938 147.113281 C 263.378906 146.117188 265.527344 144.742188 266.609375 144.054688 L 268.578125 142.808594 L 271.160156 143.535156 C 273.710938 144.257812 275.96875 144.644531 277.21875 144.582031 C 277.707031 144.554688 277.976562 144.453125 278.351562 144.15625 C 278.703125 143.875 278.992188 143.753906 279.355469 143.738281 C 279.832031 143.714844 280.144531 143.878906 279.898438 144.019531 Z M 277.621094 144.265625 C 276.351562 144.53125 271.847656 143.546875 269.09375 142.402344 L 268.519531 142.167969 L 266.871094 143.226562 C 265.964844 143.808594 263.683594 145.300781 261.808594 146.546875 C 258.917969 148.457031 258.210938 148.875 257.210938 149.269531 C 256.523438 149.542969 256.078125 149.65625 256.152344 149.542969 C 256.21875 149.4375 256.957031 148.902344 257.789062 148.355469 C 259.289062 147.378906 265.917969 142.96875 267.476562 141.914062 L 268.277344 141.371094 L 269.554688 141.917969 C 270.835938 142.46875 274.617188 143.554688 276.757812 143.984375 C 277.382812 144.109375 277.773438 144.234375 277.621094 144.265625 Z M 277.621094 144.265625 " fill-opacity="1" fill-rule="nonzero"/></g></g></g></g></svg>